<svg xmlns="http://www.w3.org/2000/svg" viewBox="0 0 1280 640" width="1280" height="640"><defs><clipPath id="a"><path d="M0 0h640v480H0z"/></clipPath></defs><path fill="#00008B" d="M0 0h1280v640H0z"/><g transform="scale(2.1333)"><path d="M0 0l320 240L0 480z" fill="#00008B"/><path d="M0 0l320 240L640 0z" fill="#00008B"/><path d="M640 480L320 240 640 0z" fill="#00008B"/><path d="M0 480l320-240 320 240z" fill="#00008B"/><g stroke="#fff" stroke-width="40" clip-path="url(#a)"><path d="M0 0l320 240L640 0M0 480l320-240 320 240" fill="none"/><path d="M320 0v480M0 240h640" fill="none" stroke-width="60"/></g><path d="M320 0v480M0 240h640" stroke="#f00" stroke-width="20" fill="none"/><g fill="#fff"><path d="M351.966 180.4l12.534 38.593h40.546l-32.809 23.848 12.534 38.593-32.809-23.848-32.809 23.848 12.534-38.593-32.809-23.848h40.546zM320 53.333l10.118 31.12h32.736l-26.49 19.253 10.118 31.12L320 115.574l-26.49 19.253 10.118-31.12-26.49-19.253h32.736zM320 373.334l10.118 31.12h32.736l-26.49 19.253 10.118 31.12L320 435.574l-26.49 19.253 10.118-31.12-26.49-19.253h32.736zM120 240l10.118 31.12h32.736l-26.49 19.253 10.118 31.12L120 302.24l-26.49 19.253 10.118-31.12-26.49-19.253h32.736zM520 240l10.118 31.12h32.736l-26.49 19.253 10.118 31.12L520 302.24l-26.49 19.253 10.118-31.12-26.49-19.253h32.736z"/><path d="M468.07 358.394l5.06 15.56h16.367l-13.244 9.626 5.06 15.56-13.244-9.626-13.244 9.626 5.06-15.56-13.244-9.626h16.367z"/></g></g></svg>
