<svg xmlns="http://www.w3.org/2000/svg" viewBox="0 0 4320 2880" width="4320" height="2880"><path fill="#ed2939" d="M0 0h4320v2880H0z"/><path fill="#fff" d="M0 1440h4320v1440H0z"/><path fill="#fff" d="M1481.678 720a541.5 541.5 0 1 1-1083 0 541.5 541.5 0 1 1 1083 0z"/><path fill="#ed2939" d="M1651.835 720a511.735 511.735 0 1 1-1023.47 0 511.735 511.735 0 1 1 1023.47 0z"/><path fill="#fff" d="M1007.695 448.28l-73.56 53.42 28.63 87.887-73.702-53.212-73.702 53.212 28.632-87.887-73.56-53.42h90.983l28.073-88.06 28.073 88.06h90.983zM1222.347 448.28l-73.56 53.42 28.63 87.887-73.702-53.212-73.702 53.212 28.632-87.887-73.56-53.42h90.983l28.073-88.06 28.073 88.06h90.983zM1222.347 897.575l-73.56 53.42 28.63 87.887-73.702-53.212-73.702 53.212 28.632-87.887-73.56-53.42h90.983l28.073-88.06 28.073 88.06h90.983zM1007.695 897.575l-73.56 53.42 28.63 87.887-73.702-53.212-73.702 53.212 28.632-87.887-73.56-53.42h90.983l28.073-88.06 28.073 88.06h90.983zM900.869 672.928l-73.56 53.42 28.63 87.887-73.702-53.212-73.702 53.212 28.632-87.887-73.56-53.42h90.983l28.073-88.06 28.073 88.06h90.983z"/></svg>
